<?xml version="1.0" encoding="UTF-8"?>
<svg id="Layer_1" data-name="Layer 1" xmlns="http://www.w3.org/2000/svg" viewBox="0 0 2201.91 572.82">
  <defs>
    <style>
      .cls-1 {
        fill: #fff;
        stroke-width: 0px;
      }
    </style>
  </defs>
  <path class="cls-1" d="M499.52,202.27h273.99v54.91l-17.54-17.38c-1.4-1.38-3.65-1.4-5.07-.02l-10.64,10.44c-.68.68-1.06,1.6-1.07,2.56-.01.95.38,1.87,1.07,2.56l41.78,41.43c1.4,1.4,3.67,1.4,5.07,0l41.78-41.43c.69-.68,1.07-1.6,1.07-2.56-.02-.98-.4-1.89-1.09-2.56l-10.62-10.44c-1.41-1.37-3.67-1.37-5.07.02l-17.55,17.38v-73.43c0-2-1.6-3.61-3.61-3.61h-292.49c-2,0-3.62,1.61-3.62,3.61v14.91c0,2,1.63,3.61,3.62,3.61h-.01Z"/>
  <g>
    <path class="cls-1" d="M439.04,404.44H79.35v-54.91l17.54,17.38c1.4,1.38,3.65,1.4,5.07.02l10.62-10.44c.69-.68,1.07-1.6,1.09-2.56.01-.95-.38-1.89-1.07-2.56l-41.77-41.43c-1.41-1.4-3.69-1.4-5.08,0l-41.8,41.43c-.68.68-1.06,1.6-1.06,2.56.02.98.4,1.89,1.07,2.56l10.64,10.44c1.41,1.37,3.67,1.37,5.07-.02l17.55-17.38v73.43c0,2,1.6,3.61,3.59,3.61h378.21c2,0,3.61-1.61,3.61-3.61v-14.91c0-2-1.61-3.61-3.61-3.61h.02Z"/>
    <path class="cls-1" d="M0,156.92c0-18.01,3.82-66.32,68.5-66.32,58.12,0,67.12,39.03,68.22,60.04.26,3.82-2.2,6.82-6.02,7.63l-30.28,6.83c-5.73,1.09-10.09-2.73-10.92-8.46-1.35-12.01-6.28-19.1-21.01-19.1-20.21,0-21.56,12.82-21.56,33.83v39.29c0,21.02,1.35,33.84,21.56,33.84,15,0,19.1-7.09,20.73-19.64.81-5.74,5.17-9.27,10.66-7.92l30.82,6.82c3.82.81,6.28,3.82,6.02,7.92-1.11,20.73-10.1,59.76-68.22,59.76C3.82,291.44,0,243.13,0,225.14v-68.22Z"/>
  </g>
  <g>
    <path class="cls-1" d="M234.77,95.52c51.3,0,68.21,20.74,68.21,65.49v59.75c0,44.76-16.91,65.76-68.21,65.76h-60.85c-5.19,0-8.18-2.99-8.18-8.18V103.98c0-5.47,2.73-8.18,8.18-8.46h60.85ZM235.58,239.6c13.1,0,19.64-2.18,19.64-18.55v-60.04c0-16.92-6.54-18.56-19.64-18.56h-14.74c-5.18,0-8.18,2.73-8.18,8.18v80.77c0,5.19,3.01,8.18,8.18,8.18h14.74v.02Z"/>
    <path class="cls-1" d="M430.51,163.19c-5.47,1.09-8.18-1.37-9.01-6.83-1.9-11.18-10.9-18.27-23.74-18.27-10.64,0-17.2,6.26-16.09,12.54,3.82,21.28,90.04,20.73,90.04,83.5,0,8.18-9.27,56.49-73.95,56.49-57.3,0-69.57-37.67-70.94-58.95-.28-4.91,2.18-7.92,7.09-9.01l30.83-6.82c5.47-1.09,8.46,1.37,9,7.11,1.09,13.08,11.19,20.73,24.01,20.73s23.2-7.92,21.56-15.29c-5.19-23.19-87.32-18.01-87.32-80.75-.26-8.18,4.64-56.49,65.76-56.49,56.21,0,69.31,36.56,70.96,56.21.28,4.91-2.2,7.92-7.09,9l-31.11,6.83Z"/>
    <path class="cls-1" d="M499.38,320.18c4.91,0,7.91,2.46,9,7.11l24.01,104.77c.55,2.46,2.73,2.46,3.27,0l24.01-104.77c1.09-4.64,4.1-7.11,9.01-7.11h32.48c5.73,0,8.44,3.29,7.09,9.01l-39.85,174.91c-1.09,4.64-4.08,7.09-9,7.09h-50.76c-4.9,0-7.91-2.46-9-7.09l-39.85-174.91c-1.35-5.73,1.37-9.01,7.11-9.01h32.48-.01Z"/>
  </g>
  <g>
    <path class="cls-1" d="M673.3,320.18c5.47,0,8.18,2.73,8.18,8.18v174.63c0,5.19-2.73,8.18-8.18,8.18h-30.02c-5.19,0-8.18-2.99-8.18-8.18v-174.63c0-5.47,2.99-8.18,8.18-8.18h30.02Z"/>
    <path class="cls-1" d="M716.91,381.59c0-18.01,3.82-66.32,68.48-66.32,58.13,0,67.13,39.03,68.22,60.04.28,3.82-2.18,6.82-6,7.63l-30.28,6.83c-5.73,1.09-10.1-2.73-10.92-8.46-1.37-12.01-6.28-19.1-21.02-19.1-20.19,0-21.54,12.82-21.54,33.83v39.29c0,21.01,1.35,33.84,21.54,33.84,15.02,0,19.12-7.11,20.74-19.65.81-5.73,5.17-9.27,10.64-7.92l30.83,6.82c3.82.83,6.28,3.82,6,7.92-1.09,20.74-10.09,59.76-68.22,59.76-64.66,0-68.48-48.31-68.48-66.32v-68.21.02Z"/>
  </g>
  <g>
    <path class="cls-1" d="M1801.81,312.29c38.81,0,69.96-29.12,69.96-67.54s-31.15-67.53-69.96-67.53-69.98,29.11-69.98,67.53,31.15,67.54,69.98,67.54ZM1801.81,212.36c17.93,0,32.72,14.65,32.72,32.39s-14.79,32.39-32.72,32.39-32.73-14.65-32.73-32.39,14.8-32.39,32.73-32.39Z"/>
    <path class="cls-1" d="M1975.44,265.94c12.54-8.61,22.47-21.36,22.47-38.76,0-27.05-21.77-47.04-49.26-47.04h-59.36v129.22h35.51v-35.15h16.71l16.19,35.15h39.85l-22.11-43.42ZM1948.65,242.34h-23.85v-30.5h23.85c8,0,13.23,8.96,13.23,15.34s-5.22,15.16-13.23,15.16Z"/>
    <rect class="cls-1" x="2019.45" y="180.14" width="35.49" height="129.22"/>
    <path class="cls-1" d="M2128.74,180.12l-59.86,129.23h38.06l6.25-14.64h44.4l6.25,14.64h38.06l-59.86-129.23h-13.32ZM2124.02,264.03l11.02-25.15h.74l11.01,25.15h-22.77Z"/>
    <path class="cls-1" d="M1652.99,309.36h35.5v-97.51h35.68v-31.7h-85.94L1721.71,0h-530.87l84.02,181.31h39.17l32.14,69.36,32.14-69.36h39.25l-58.81,126.91h-25.08l122.61,264.6,125.44-270.7c-9.73,5.63-21.02,8.86-33.07,8.86-37.9,0-68.02-28.6-68.02-66.33s30.12-66.34,68.02-66.34c24.2,0,45.35,13.04,56.85,32.33l-29.61,17.77c-5.59-9.13-15.74-15.57-27.24-15.57-17.6,0-31.81,14.39-31.81,31.82s14.21,31.82,31.81,31.82c11.51,0,21.66-6.26,27.24-15.57l19.5,11.7,28.15-60.75h29.45v97.51ZM1464.47,308.22h-36.25v-126.91h36.25v126.91Z"/>
    <path class="cls-1" d="M1674.03,416.04c-8.31,0-15.92-3.23-20.59-6.97l-6.7,10.38c6.93,5.59,17.45,8.45,27.24,8.45,13.9,0,26.45-6.78,26.45-21.05,0-11.27-9.04-16.2-20.59-18.1l-3.64-.6c-7.76-1.3-13.35-2.72-13.35-7.48s5.12-7.75,12.37-7.75,13.25,2.35,18.33,5.49l6.09-10.52c-8.13-4.85-15.65-6.88-24.7-6.88-13.76,0-25.76,7.01-25.76,20.5,0,11.68,8.31,16.71,19.71,18.52l4.11.64c9,1.43,13.71,3.09,13.71,7.57,0,4.99-5.54,7.8-12.7,7.8Z"/>
    <path class="cls-1" d="M1744.2,423.19l-4.44-9.42c-2.45,1.48-5.54,2.91-8.4,2.91-3.74,0-6.69-2.03-6.69-7.61v-16.35h16.2v-10.71h-16.2v-13.3h-12.05v13.3h-8.64v10.71h8.64v17.31c0,11.59,5.67,17.87,16.75,17.87,6.38,0,10.9-2.04,14.83-4.71Z"/>
    <path class="cls-1" d="M1793.13,426.75v-44.73h-11.78v4.93c-2.95-3.65-7.24-6.13-13.39-6.13-12.32,0-21.65,10.11-21.65,23.54s9.32,23.54,21.65,23.54c6.15,0,10.49-2.49,13.39-6.09v4.94h11.78ZM1770.17,416.68c-7.06,0-11.54-5.49-11.54-12.32s4.48-12.33,11.54-12.33,11.55,5.26,11.55,12.33-4.67,12.32-11.55,12.32Z"/>
    <path class="cls-1" d="M1824.87,427.9c6.38,0,10.9-2.04,14.83-4.71l-4.44-9.42c-2.45,1.48-5.54,2.91-8.41,2.91-3.74,0-6.69-2.03-6.69-7.61v-16.35h16.2v-10.71h-16.2v-13.3h-12.05v13.3h-8.63v10.71h8.63v17.31c0,11.59,5.67,17.87,16.75,17.87Z"/>
    <path class="cls-1" d="M1877.04,413.36c-3.24,2.72-7.44,4.29-11.32,4.29-5.67,0-10.2-2.81-11.49-9.28h31.72c.13-1.01.22-2.68.22-4.06-.04-13.94-8.86-23.5-21.74-23.5s-22.62,9.6-22.62,23.68,9.52,23.41,23.23,23.41c7.52,0,13.99-2.13,19.06-6.78l-7.05-7.76ZM1864.34,391.2c5.17,0,8.63,3.23,9.74,8.96h-19.81c1.07-5.54,4.4-8.96,10.07-8.96Z"/>
    <path class="cls-1" d="M1682.06,473.97v10.75h16.43c-1.71,9.19-7.85,14.27-18.37,14.27-11.17,0-20.18-8.27-20.18-21.47s8.59-21.28,20.41-21.28c6.6,0,11.95,2.58,15.6,6.78l9.28-9.09c-5.72-6.24-14.27-9.93-24.52-9.93-19.85,0-34.12,13.99-34.12,33.52,0,20.87,15.89,33.47,33.79,33.47s31.58-13.81,31.58-33.38c0-1.2-.05-2.4-.18-3.65h-29.73Z"/>
    <path class="cls-1" d="M1742.2,463.9c-13.9,0-24.14,10.07-24.14,23.54s10.25,23.54,24.14,23.54,24.24-10.06,24.24-23.54-10.29-23.54-24.24-23.54ZM1742.2,499.77c-6.78,0-11.86-5.07-11.86-12.32s5.08-12.33,11.86-12.33,11.91,5.09,11.91,12.33-5.12,12.32-11.91,12.32Z"/>
    <polygon class="cls-1" points="1792.34 497.13 1780.74 465.1 1767.63 465.1 1785.32 509.84 1799.21 509.84 1816.71 465.1 1804.01 465.1 1792.34 497.13"/>
    <path class="cls-1" d="M1840.57,463.9c-13.4,0-22.62,9.6-22.62,23.68s9.52,23.41,23.22,23.41c7.53,0,13.99-2.13,19.07-6.78l-7.07-7.76c-3.22,2.72-7.44,4.3-11.3,4.3-5.67,0-10.2-2.82-11.49-9.28h31.7c.14-1.02.24-2.68.24-4.07-.05-13.94-8.87-23.5-21.74-23.5ZM1830.41,483.24c1.07-5.54,4.38-8.96,10.07-8.96,5.17,0,8.62,3.23,9.74,8.96h-19.81Z"/>
    <path class="cls-1" d="M1881.98,469.99v-4.89h-11.69v44.73h12.06v-24.37c0-6.65,3.83-10.07,9.41-10.07,2.45,0,5.32.55,7.3,1.43l1.79-11.96c-1.66-.61-3.69-.97-6.28-.97-5.49,0-9.78,1.9-12.59,6.09Z"/>
    <path class="cls-1" d="M1932.1,463.9c-5.08,0-9.98,1.71-13.16,6.46v-5.26h-11.73v44.73h12.04v-24.52c0-6.74,4.3-10.11,9.48-10.11,5.49,0,8.73,3.55,8.73,10.02v24.61h12.04v-28.49c0-10.38-7.25-17.45-17.4-17.45Z"/>
    <path class="cls-1" d="M2014.77,463.9c-5.86,0-11.73,1.99-15.19,7.67-3-4.76-8.3-7.67-14.77-7.67-5.08,0-9.98,1.71-13.16,6.46v-5.26h-11.73v44.73h12.04v-24.52c0-6.74,4.3-10.11,9.48-10.11,5.49,0,8.73,3.55,8.73,10.02v24.61h12.04v-24.52c0-6.74,4.29-10.11,9.46-10.11,5.45,0,8.73,3.55,8.73,10.02v24.61h12v-28.49c0-10.38-7.11-17.45-17.64-17.45Z"/>
    <path class="cls-1" d="M2062.67,463.9c-13.38,0-22.62,9.6-22.62,23.68s9.52,23.41,23.23,23.41c7.53,0,13.99-2.13,19.07-6.78l-7.07-7.76c-3.24,2.72-7.44,4.3-11.3,4.3-5.69,0-10.21-2.82-11.5-9.28h31.72c.13-1.02.22-2.68.22-4.07-.04-13.94-8.86-23.5-21.74-23.5ZM2052.53,483.24c1.05-5.54,4.38-8.96,10.05-8.96,5.17,0,8.63,3.23,9.74,8.96h-19.79Z"/>
    <path class="cls-1" d="M2117.28,463.9c-5.07,0-9.96,1.71-13.15,6.46v-5.26h-11.73v44.73h12.04v-24.52c0-6.74,4.29-10.11,9.46-10.11,5.5,0,8.73,3.55,8.73,10.02v24.61h12.06v-28.49c0-10.38-7.25-17.45-17.41-17.45Z"/>
    <path class="cls-1" d="M2167.59,499.77c-3.74,0-6.7-2.03-6.7-7.61v-16.35h16.21v-10.71h-16.21v-13.3h-12.04v13.3h-8.63v10.71h8.63v17.31c0,11.59,5.67,17.87,16.75,17.87,6.37,0,10.9-2.03,14.82-4.71l-4.42-9.42c-2.45,1.48-5.54,2.91-8.41,2.91Z"/>
  </g>
</svg>